<?xml version="1.0" encoding="UTF-8"?>
<svg id="Layer_1" data-name="Layer 1" xmlns="http://www.w3.org/2000/svg" version="1.1" viewBox="0 0 120 120">
  <defs>
    <style>
      .cls-1 {
        fill: #1c8058;
      }

      .cls-1, .cls-2, .cls-3, .cls-4 {
        stroke-width: 0px;
      }

      .cls-2 {
        fill: #41b680;
      }

      .cls-3 {
        fill: #c0e2d4;
      }

      .cls-4 {
        fill: #fff;
      }
    </style>
  </defs>
  <g>
    <g>
      <g>
        <path class="cls-3" d="M46.32,104.9c.99,0,1.86-.66,2.14-1.61,1.11-3.87,3.29-13.8-1.34-19.75-2.74-3.52-5.94-6.6-9.02-9.81-1.4-1.46-2.84-2.95-4.03-4.58-1.45-1.97-2.47-4.23-4.04-6.12-1.1-1.32-2.99-2.48-4.23-.68-.63.91-.72,2.16-.5,3.21.47,2.29,1.8,4.32,2.66,6.47.35.87.68,1.75,1.01,2.62.68,1.82-1.59,3.27-2.98,1.91-3.47-3.39-5.83-8.08-6.45-12.79-.43-3.23.18-10.03-4.07-11.06-2.92-.7-2.12,6.48-2.02,7.8.37,4.62.95,9.48,2.68,13.8,1.89,4.71,4.98,8.94,8.94,12.12,2.49,1.99,5.29,3.57,7.79,5.55,1.31,1.03,2.55,2.19,3.37,3.64,1.34,2.38.71,5.31.6,7.93-.03.73.54,1.35,1.28,1.35,2.03,0,5.99,0,8.22,0Z"/>
        <path class="cls-4" d="M46.32,106.36h-8.22c-.75,0-1.45-.3-1.97-.84-.52-.54-.79-1.28-.76-2.03.02-.55.07-1.12.11-1.69.16-2.03.32-3.95-.53-5.46-.76-1.35-2-2.42-3-3.21-1.17-.92-2.46-1.79-3.7-2.62-1.36-.92-2.77-1.87-4.1-2.93-4.13-3.31-7.38-7.71-9.38-12.71-1.8-4.5-2.4-9.5-2.78-14.22l-.02-.27c-.42-4.78,0-7.32,1.37-8.51.68-.58,1.55-.78,2.47-.56,4.48,1.08,4.8,6.55,5.01,10.18.05.79.09,1.53.16,2.1.59,4.43,2.78,8.78,6.03,11.94.05.05.22.21.47.05.23-.15.16-.33.13-.41-.33-.87-.66-1.74-1-2.6-.28-.71-.62-1.41-.98-2.16-.69-1.43-1.4-2.9-1.75-4.56-.33-1.6-.07-3.19.73-4.34.85-1.22,1.89-1.52,2.62-1.55,1.88-.07,3.38,1.46,3.93,2.13.95,1.15,1.7,2.39,2.42,3.59.55.92,1.07,1.78,1.67,2.59,1.14,1.55,2.55,3.02,3.91,4.44.66.69,1.32,1.36,1.98,2.04,2.42,2.48,4.93,5.05,7.13,7.88,5.02,6.46,2.78,16.87,1.59,21.04-.45,1.57-1.9,2.67-3.54,2.67ZM38.28,103.45h8.03c.35,0,.64-.22.74-.56,1.07-3.75,3.11-13.05-1.09-18.45-2.1-2.7-4.55-5.21-6.92-7.63-.67-.68-1.34-1.37-2-2.06-1.43-1.49-2.9-3.02-4.16-4.73-.68-.92-1.26-1.88-1.82-2.82-.7-1.16-1.36-2.26-2.17-3.23-.6-.72-1.27-1.09-1.56-1.08-.1,0-.22.1-.35.3-.34.48-.44,1.29-.27,2.09.27,1.31.88,2.56,1.52,3.88.37.76.75,1.54,1.07,2.35.35.88.69,1.76,1.02,2.65.55,1.46.04,3.02-1.26,3.87-1.32.86-2.97.7-4.1-.4-3.7-3.61-6.21-8.58-6.88-13.64-.09-.68-.14-1.48-.18-2.32-.22-3.77-.58-6.93-2.73-7.5-.19.31-.69,1.54-.3,5.97l.02.29c.36,4.5.92,9.23,2.58,13.37,1.82,4.54,4.76,8.52,8.5,11.52,1.23.99,2.53,1.86,3.9,2.78,1.29.87,2.62,1.76,3.88,2.75,1.21.95,2.73,2.28,3.74,4.07,1.28,2.28,1.08,4.85.89,7.12-.04.48-.08.95-.1,1.41Z"/>
      </g>
      <path class="cls-1" d="M46.31,108.17h-8.21c-1.22,0-2.36-.47-3.22-1.33l1.03-1.03-1.03,1.03c-.9-.9-1.38-2.14-1.33-3.41.02-.58.07-1.18.12-1.78.14-1.75.27-3.4-.3-4.43-.27-.48-.64-.95-1.14-1.45-.38-.38-.83-.77-1.4-1.22-1.13-.88-2.32-1.69-3.59-2.54-1.39-.94-2.83-1.91-4.22-3.02-.9-.72-1.78-1.51-2.61-2.34-3.13-3.13-5.66-6.97-7.32-11.11-1.9-4.73-2.51-9.89-2.9-14.75l-.02-.25c-.48-5.5.1-8.41,1.99-10.04,1.11-.96,2.59-1.3,4.07-.94,1.29.31,2.42.94,3.34,1.87,2.61,2.61,2.85,6.66,3.04,9.92.14-.3.31-.58.49-.84.94-1.35,2.29-2.18,3.8-2.31,1.72-.16,3.52.6,5.05,2.12.21.21.41.43.59.64,1.04,1.25,1.82,2.55,2.58,3.81.53.88,1.03,1.71,1.58,2.46,1.08,1.46,2.44,2.88,3.76,4.26.65.68,1.31,1.35,1.97,2.03,2.47,2.52,5.01,5.13,7.27,8.04,5.53,7.11,3.17,18.22,1.9,22.66-.67,2.34-2.84,3.97-5.28,3.97ZM36.94,104.78c.31.31.72.48,1.16.48h8.21c1.14,0,2.16-.77,2.48-1.86,1.15-4.02,3.31-14.02-1.4-20.07-2.16-2.78-4.65-5.32-7.05-7.78-.67-.69-1.33-1.37-1.99-2.05-1.38-1.44-2.81-2.93-4-4.55-.63-.86-1.19-1.78-1.72-2.68-.7-1.17-1.43-2.38-2.32-3.45-.13-.15-.26-.3-.41-.45-.9-.9-1.87-1.35-2.72-1.28-.66.06-1.22.42-1.67,1.07-.63.9-.83,2.18-.56,3.49.31,1.52,1,2.93,1.66,4.29.39.81.73,1.51,1.02,2.24.34.86.68,1.74,1,2.61.24.64,0,1.36-.57,1.73-.57.37-1.33.3-1.81-.18l-.19-.19c-3.31-3.31-5.56-7.84-6.17-12.41-.08-.61-.13-1.37-.17-2.17-.16-2.8-.36-6.26-2.2-8.09-.54-.54-1.21-.91-1.97-1.1-.4-.1-.98-.12-1.49.32-1.05.9-1.36,3.31-.99,7.58l.02.26c.37,4.65.95,9.54,2.7,13.91,1.51,3.78,3.82,7.28,6.68,10.14.75.75,1.55,1.47,2.38,2.13,1.29,1.03,2.68,1.97,4.02,2.87,1.32.89,2.56,1.72,3.77,2.67.66.52,1.2.99,1.66,1.45.69.69,1.22,1.37,1.62,2.08,1.01,1.8.84,3.98.67,6.09-.05.57-.09,1.12-.11,1.66-.02.46.16.9.48,1.23Z"/>
    </g>
    <g>
      <g>
        <path class="cls-3" d="M73.68,104.9c-.99,0-1.86-.66-2.14-1.61-1.11-3.87-3.29-13.8,1.34-19.75,2.74-3.52,5.94-6.6,9.02-9.81,1.4-1.46,2.84-2.95,4.03-4.58,1.45-1.97,2.47-4.23,4.04-6.12,1.1-1.32,2.99-2.48,4.23-.68.63.91.72,2.16.5,3.21-.47,2.29-1.8,4.32-2.66,6.47-.35.87-.68,1.75-1.01,2.62-.68,1.82,1.59,3.27,2.98,1.91,3.47-3.39,5.83-8.08,6.45-12.79.43-3.23-.18-10.03,4.07-11.06,2.92-.7,2.12,6.48,2.02,7.8-.37,4.62-.95,9.48-2.68,13.8-1.89,4.71-4.98,8.94-8.94,12.12-2.49,1.99-5.29,3.57-7.79,5.55-1.31,1.03-2.55,2.19-3.37,3.64-1.34,2.38-.71,5.31-.6,7.93.03.73-.54,1.35-1.28,1.35-2.03,0-5.99,0-8.22,0Z"/>
        <path class="cls-4" d="M81.9,106.36h-8.22c-1.63,0-3.09-1.1-3.54-2.67-1.19-4.18-3.43-14.59,1.59-21.04,2.2-2.83,4.71-5.4,7.13-7.88.66-.68,1.32-1.36,1.98-2.04,1.36-1.42,2.77-2.88,3.91-4.44.6-.81,1.12-1.68,1.67-2.59.72-1.2,1.47-2.45,2.42-3.59.55-.67,2.06-2.2,3.93-2.13.73.03,1.78.33,2.62,1.55.8,1.15,1.06,2.73.73,4.34-.34,1.66-1.06,3.13-1.75,4.56-.36.74-.7,1.44-.98,2.15-.34.86-.68,1.73-1,2.6-.03.08-.1.26.13.41.25.16.42,0,.47-.05,3.24-3.16,5.44-7.51,6.03-11.94.08-.57.12-1.32.16-2.1.21-3.62.53-9.1,5.01-10.18.91-.22,1.79-.02,2.46.56,1.38,1.18,1.79,3.73,1.37,8.51l-.02.27c-.38,4.73-.97,9.72-2.78,14.23-2,5-5.25,9.4-9.38,12.71-1.33,1.06-2.74,2.01-4.1,2.93-1.24.84-2.53,1.7-3.7,2.62-1,.79-2.24,1.86-3,3.21-.85,1.51-.69,3.43-.53,5.46.05.57.09,1.14.11,1.69.03.75-.25,1.49-.76,2.03-.52.54-1.22.84-1.97.84ZM81.72,103.62h.01-.01ZM92.64,62.88c-.32,0-.96.37-1.54,1.08-.81.97-1.47,2.07-2.17,3.23-.56.93-1.14,1.9-1.82,2.82-1.26,1.71-2.73,3.24-4.16,4.73-.66.69-1.33,1.37-2,2.06-2.37,2.43-4.82,4.93-6.92,7.64-4.2,5.4-2.16,14.71-1.09,18.45.09.33.39.56.74.56h8.03c-.02-.46-.06-.94-.1-1.41-.18-2.27-.39-4.84.89-7.12,1.01-1.79,2.53-3.12,3.74-4.07,1.26-.99,2.59-1.89,3.88-2.75,1.37-.92,2.67-1.8,3.91-2.79,3.74-3,6.68-6.98,8.5-11.52,1.66-4.14,2.22-8.87,2.58-13.37l.02-.29c.38-4.4-.11-5.65-.3-5.96-2.16.61-2.51,3.76-2.73,7.5-.05.84-.09,1.64-.18,2.32-.67,5.06-3.18,10.03-6.88,13.64-1.13,1.1-2.78,1.27-4.1.41-1.3-.85-1.81-2.41-1.26-3.87.33-.89.67-1.77,1.02-2.65.32-.81.7-1.59,1.07-2.35.64-1.33,1.25-2.58,1.52-3.88.17-.8.06-1.61-.27-2.09-.13-.19-.25-.29-.35-.3h-.02Z"/>
      </g>
      <path class="cls-1" d="M73.69,108.17c-2.44,0-4.61-1.63-5.28-3.97-1.27-4.45-3.63-15.55,1.9-22.66,2.26-2.91,4.8-5.51,7.26-8.03l.15-.15c.61-.63,1.22-1.25,1.83-1.89,1.32-1.37,2.68-2.79,3.76-4.26.55-.75,1.05-1.58,1.58-2.45.76-1.26,1.54-2.57,2.58-3.82.18-.22.38-.44.59-.65,1.52-1.52,3.31-2.28,5.05-2.12,1.52.14,2.86.96,3.8,2.31.18.27.35.55.49.84.19-3.28.44-7.32,3.04-9.92.93-.93,2.05-1.56,3.34-1.87,1.48-.36,2.96-.01,4.07.94,1.89,1.63,2.47,4.54,1.99,10.04l-.02.26c-.39,4.86-1.01,10.02-2.9,14.75-1.66,4.14-4.19,7.98-7.32,11.11-.83.83-1.71,1.62-2.61,2.34-1.38,1.11-2.82,2.07-4.21,3.01-1.28.86-2.48,1.67-3.61,2.56-.57.45-1.02.84-1.4,1.22-.5.5-.88.98-1.14,1.45-.58,1.03-.44,2.68-.3,4.43.05.6.09,1.19.12,1.77.05,1.27-.43,2.51-1.33,3.41h0c-.86.86-2,1.33-3.22,1.33h-8.21ZM92.64,61.07c-.81,0-1.7.45-2.53,1.29-.14.14-.28.29-.41.45-.9,1.08-1.62,2.28-2.32,3.45-.54.9-1.1,1.83-1.73,2.68-1.19,1.62-2.62,3.11-4,4.55-.61.64-1.23,1.27-1.85,1.9l-.14.14c-2.41,2.47-4.89,5.01-7.05,7.79-4.71,6.06-2.55,16.06-1.4,20.07.31,1.1,1.33,1.86,2.48,1.86h8.21c.44,0,.85-.17,1.16-.48,0,0,0,0,0,0,.32-.32.5-.77.48-1.23-.02-.54-.07-1.1-.11-1.66-.17-2.11-.35-4.29.67-6.09.4-.71.93-1.39,1.62-2.08.46-.46,1-.93,1.66-1.45,1.21-.95,2.45-1.79,3.77-2.67,1.35-.91,2.74-1.84,4.02-2.87.82-.66,1.62-1.38,2.38-2.13,2.85-2.85,5.16-6.36,6.67-10.14,1.75-4.37,2.33-9.26,2.7-13.9l.02-.27c.37-4.28.06-6.69-.99-7.59-.51-.44-1.09-.42-1.49-.32-.76.18-1.43.55-1.97,1.1-1.83,1.83-2.03,5.29-2.2,8.07-.05.82-.09,1.58-.17,2.19-.61,4.57-2.85,9.09-6.17,12.4l-.2.19c-.49.48-1.24.54-1.81.17-.57-.37-.8-1.09-.57-1.73.33-.87.66-1.75,1-2.61.3-.74.64-1.45,1-2.21.67-1.39,1.35-2.8,1.67-4.33.27-1.31.07-2.58-.56-3.49-.45-.65-1.01-1.01-1.67-1.07-.06,0-.13,0-.19,0Z"/>
    </g>
  </g>
  <g>
    <g>
      <path class="cls-3" d="M55.93,58.31h-12.23c-1.21,0-2.2-.82-2.2-1.83v-10.83c0-2.46,1.15-4.7,3.03-6.36,1.17-1.04,1.52-1.15,2.15-1.48,1.73-.92,3.79-1.45,6-1.45l7.32,3.06,7.32-3.06c6.17,0,11.18,4.16,11.18,9.29v10.41c0,1.24-1.21,2.25-2.7,2.25h-22.34"/>
      <path class="cls-4" d="M75.79,59.77h-32.1c-2.01,0-3.65-1.47-3.65-3.28v-10.83c0-2.8,1.25-5.45,3.53-7.46,1.07-.95,1.57-1.23,2.21-1.56l.22-.12c2-1.06,4.31-1.62,6.68-1.62.19,0,.38.04.56.11l6.76,2.82,6.76-2.82c.18-.07.37-.11.56-.11,6.97,0,12.64,4.82,12.64,10.75v10.41c0,2.04-1.87,3.7-4.16,3.7ZM53.46,56.86h22.34c.71,0,1.25-.42,1.25-.79v-10.41c0-4.24-4.21-7.71-9.44-7.83l-7.04,2.94c-.36.15-.76.15-1.12,0l-7.04-2.94c-1.8.04-3.53.48-5.03,1.28l-.26.13c-.44.23-.73.37-1.61,1.15-1.64,1.45-2.54,3.32-2.54,5.27v10.83c0,.11.28.37.74.37h9.76Z"/>
    </g>
    <g>
      <path class="cls-2" d="M59.77,54.1s-7.58-4.22-5.26-8.92c.36-.73,1-1.29,1.8-1.48.9-.21,2.07-.03,3.67,1.57"/>
      <path class="cls-2" d="M59.77,54.1s8.26-4.3,5.77-9.06c-.31-.58-.81-1.05-1.43-1.27-.88-.31-2.39-.26-4.14,1.49"/>
    </g>
    <path class="cls-1" d="M75.79,62.63h-32.1c-3.59,0-6.51-2.76-6.51-6.14v-10.84c0-3.63,1.59-7.04,4.49-9.6,1.31-1.16,2.02-1.56,2.8-1.96l.2-.11c2.4-1.27,5.17-1.95,8.01-1.95h.57c.19,0,.38.04.56.11l6.18,2.58,6.18-2.58c.18-.07.37-.11.56-.11h.57c8.54,0,15.5,6.11,15.5,13.61v10.41c0,3.62-3.15,6.57-7.02,6.57ZM52.68,34.95c-2.36,0-4.66.56-6.66,1.61l-.22.11c-.64.33-1.13.61-2.2,1.55-2.26,2-3.51,4.63-3.51,7.42v10.84c0,1.78,1.62,3.23,3.6,3.23h32.1c2.27,0,4.11-1.64,4.11-3.65v-10.41c0-5.9-5.65-10.7-12.58-10.7h-.28l-6.48,2.7c-.36.15-.76.15-1.12,0l-6.48-2.7h-.28Z"/>
    <path class="cls-1" d="M59.99,38.6c-7.38,0-13.39-6.01-13.39-13.39s6.01-13.39,13.39-13.39,13.39,6.01,13.39,13.39-6.01,13.39-13.39,13.39ZM59.99,14.74c-5.78,0-10.47,4.7-10.47,10.48s4.7,10.48,10.47,10.48,10.48-4.7,10.48-10.48-4.7-10.48-10.48-10.48Z"/>
    <g>
      <circle class="cls-3" cx="59.99" cy="25.21" r="9.07"/>
      <path class="cls-4" d="M59.99,35.74c-5.8,0-10.53-4.72-10.53-10.53s4.72-10.53,10.53-10.53,10.53,4.72,10.53,10.53-4.72,10.53-10.53,10.53ZM59.99,17.6c-4.2,0-7.61,3.42-7.61,7.61s3.42,7.61,7.61,7.61,7.62-3.42,7.62-7.61-3.42-7.61-7.62-7.61Z"/>
    </g>
    <g>
      <path class="cls-2" d="M50.92,25.21c0-5.01,4.06-9.07,9.07-9.07s9.07,4.06,9.07,9.07"/>
      <path class="cls-4" d="M70.52,25.21h-2.91c0-4.2-3.42-7.61-7.62-7.61s-7.61,3.42-7.61,7.61h-2.91c0-5.8,4.72-10.53,10.53-10.53s10.53,4.72,10.53,10.53Z"/>
    </g>
  </g>
</svg>